<svg xmlns="http://www.w3.org/2000/svg" viewBox="0 0 32 32" width="32" height="32">
  <defs>
    <linearGradient id="bg" x1="0%" y1="0%" x2="100%" y2="100%">
      <stop offset="0%" style="stop-color:#1565C0"/>
      <stop offset="100%" style="stop-color:#0A2472"/>
    </linearGradient>
    <clipPath id="bc">
      <circle cx="16" cy="13" r="8"/>
    </clipPath>
  </defs>
  <circle cx="16" cy="16" r="15.5" fill="#FFD700"/>
  <circle cx="16" cy="16" r="14" fill="url(#bg)"/>
  <circle cx="16" cy="13" r="8" fill="white"/>
  <polygon points="16,8 19,11 18,14 14,14 13,11" fill="#1a1a2e" clip-path="url(#bc)"/>
  <polygon points="13,11 10,10 9,7 12,5 15,7" fill="#1a1a2e" opacity="0.8" clip-path="url(#bc)"/>
  <polygon points="19,11 22,10 23,7 20,5 17,7" fill="#1a1a2e" opacity="0.8" clip-path="url(#bc)"/>
  <polygon points="14,14 11,16 9,14 10,11 13,11" fill="#1a1a2e" opacity="0.8" clip-path="url(#bc)"/>
  <polygon points="18,14 21,16 23,14 22,11 19,11" fill="#1a1a2e" opacity="0.8" clip-path="url(#bc)"/>
  <rect x="4" y="22.5" width="24" height="1.5" fill="#FFD700" rx="0.75"/>
  <text x="16" y="30" text-anchor="middle" font-family="Arial Black,sans-serif" font-weight="900" font-size="7" fill="white" letter-spacing="0.5">LAMINY</text>
</svg>
